STARTFONT 2.3
FONT -FontForge-Satisfy-Book-R-Normal--14-140-72-72-P-61-ISO10646-1
SIZE 14 72 72  2
FONTBOUNDINGBOX 16 21 -3 -7
COMMENT "Generated by fontforge, http://fontforge.sourceforge.net"
COMMENT "Copyright (c) 2011 by Font Diner, Inc. All rights reserved."
STARTPROPERTIES 40
FOUNDRY "FontForge"
FAMILY_NAME "Satisfy"
WEIGHT_NAME "Book"
SLANT "R"
SETWIDTH_NAME "Normal"
ADD_STYLE_NAME ""
PIXEL_SIZE 14
POINT_SIZE 140
RESOLUTION_X 72
RESOLUTION_Y 72
SPACING "P"
AVERAGE_WIDTH 61
CHARSET_REGISTRY "ISO10646"
CHARSET_ENCODING "1"
FONTNAME_REGISTRY ""
CHARSET_COLLECTIONS "ISO10646-1"
BITS_PER_PIXEL 2
FONT_NAME "Satisfy-Regular"
FACE_NAME "Satisfy Regular"
COPYRIGHT "Copyright (c) 2011 by Font Diner, Inc. All rights reserved."
FONT_VERSION "1.001"
FONT_ASCENT 11
FONT_DESCENT 3
UNDERLINE_POSITION -1
UNDERLINE_THICKNESS 1
X_HEIGHT 5
CAP_HEIGHT 10
RAW_ASCENT 799
RAW_DESCENT 200
NORM_SPACE 4
RELATIVE_WEIGHT 40
RELATIVE_SETWIDTH 50
SUPERSCRIPT_X 0
SUPERSCRIPT_Y 6
SUPERSCRIPT_SIZE 9
SUBSCRIPT_X 0
SUBSCRIPT_Y 1
SUBSCRIPT_SIZE 9
AVG_LOWERCASE_WIDTH 58
AVG_UPPERCASE_WIDTH 79
ENDPROPERTIES
CHARS 227
STARTCHAR space
ENCODING 32
SWIDTH 280 0
DWIDTH 4 0
BBX 1 1 0 0
BITMAP
00
ENDCHAR
STARTCHAR exclam
ENCODING 33
SWIDTH 249 0
DWIDTH 3 0
BBX 4 12 0 -1
BITMAP
01
0E
0D
1C
28
28
34
70
60
00
D0
40
ENDCHAR
STARTCHAR quotedbl
ENCODING 34
SWIDTH 249 0
DWIDTH 3 0
BBX 5 4 0 6
BITMAP
2640
3700
7600
6500
ENDCHAR
STARTCHAR numbersign
ENCODING 35
SWIDTH 417 0
DWIDTH 6 0
BBX 6 8 0 1
BITMAP
0550
0990
6FE0
1980
6A90
7740
6600
4400
ENDCHAR
STARTCHAR dollar
ENCODING 36
SWIDTH 292 0
DWIDTH 4 0
BBX 6 10 -1 0
BITMAP
0080
0690
0C60
1C90
0D00
0600
1300
5200
2A00
1400
ENDCHAR
STARTCHAR percent
ENCODING 37
SWIDTH 574 0
DWIDTH 8 0
BBX 8 11 0 -1
BITMAP
1A06
2208
5324
6690
2980
0224
0999
18C5
3488
A0E8
4000
ENDCHAR
STARTCHAR ampersand
ENCODING 38
SWIDTH 460 0
DWIDTH 6 0
BBX 7 12 -1 -1
BITMAP
0010
0098
0154
02A0
02C0
0740
1F80
3680
A1C4
A1E4
7AE0
0460
ENDCHAR
STARTCHAR quotesingle
ENCODING 39
SWIDTH 113 0
DWIDTH 2 0
BBX 3 4 0 6
BITMAP
24
30
70
60
ENDCHAR
STARTCHAR parenleft
ENCODING 40
SWIDTH 234 0
DWIDTH 3 0
BBX 5 14 0 -2
BITMAP
0040
0200
0900
0C00
2400
3000
7000
6000
A000
9000
9000
9000
5000
1000
ENDCHAR
STARTCHAR parenright
ENCODING 41
SWIDTH 204 0
DWIDTH 3 0
BBX 5 14 -2 -2
BITMAP
0100
0240
0180
0180
0180
0280
0240
0300
0300
0600
0C00
1800
2000
4000
ENDCHAR
STARTCHAR asterisk
ENCODING 42
SWIDTH 327 0
DWIDTH 5 0
BBX 5 5 1 5
BITMAP
5C00
EA40
2900
D900
0400
ENDCHAR
STARTCHAR plus
ENCODING 43
SWIDTH 350 0
DWIDTH 5 0
BBX 5 6 0 2
BITMAP
0500
0900
6E40
AD40
1800
1000
ENDCHAR
STARTCHAR comma
ENCODING 44
SWIDTH 200 0
DWIDTH 3 0
BBX 2 3 -1 -2
BITMAP
70
30
10
ENDCHAR
STARTCHAR hyphen
ENCODING 45
SWIDTH 353 0
DWIDTH 5 0
BBX 5 2 0 3
BITMAP
BF80
4000
ENDCHAR
STARTCHAR period
ENCODING 46
SWIDTH 213 0
DWIDTH 3 0
BBX 3 2 -1 -1
BITMAP
74
10
ENDCHAR
STARTCHAR slash
ENCODING 47
SWIDTH 262 0
DWIDTH 4 0
BBX 6 10 -1 0
BITMAP
0030
0090
0180
0240
0600
0800
1800
3000
A000
C000
ENDCHAR
STARTCHAR zero
ENCODING 48
SWIDTH 489 0
DWIDTH 7 0
BBX 7 12 0 -1
BITMAP
0040
07A0
0D30
1824
3424
7034
6030
A060
A090
6180
3A00
0400
ENDCHAR
STARTCHAR one
ENCODING 49
SWIDTH 272 0
DWIDTH 4 0
BBX 4 10 0 0
BITMAP
0E
1D
0C
18
18
24
30
60
A0
A0
ENDCHAR
STARTCHAR two
ENCODING 50
SWIDTH 448 0
DWIDTH 6 0
BBX 7 12 -1 -1
BITMAP
0010
0268
0A1C
091C
0024
0070
00D0
0740
1D00
3540
7FE0
1000
ENDCHAR
STARTCHAR three
ENCODING 51
SWIDTH 462 0
DWIDTH 6 0
BBX 6 12 0 -1
BITMAP
0140
1EA0
2830
3870
0090
0280
0A80
0090
00D0
D180
BB00
1400
ENDCHAR
STARTCHAR four
ENCODING 52
SWIDTH 452 0
DWIDTH 6 0
BBX 6 11 0 -1
BITMAP
00F0
02A0
0A90
2880
60C0
FFE0
0280
0240
0340
0740
0100
ENDCHAR
STARTCHAR five
ENCODING 53
SWIDTH 444 0
DWIDTH 6 0
BBX 7 11 0 -1
BITMAP
0BF4
0810
1400
2100
3AC0
2490
0080
5080
E240
BD00
1000
ENDCHAR
STARTCHAR six
ENCODING 54
SWIDTH 477 0
DWIDTH 7 0
BBX 6 12 0 -1
BITMAP
0040
02B0
0930
1C50
2540
3DA0
7860
6060
6090
71C0
2A40
0400
ENDCHAR
STARTCHAR seven
ENCODING 55
SWIDTH 406 0
DWIDTH 6 0
BBX 7 11 0 0
BITMAP
0040
2FF4
1030
0090
0180
0300
0A00
1C00
2800
3400
7000
ENDCHAR
STARTCHAR eight
ENCODING 56
SWIDTH 444 0
DWIDTH 6 0
BBX 6 12 0 -1
BITMAP
0040
0660
0C20
1C60
0EC0
0F00
2B40
A280
C1C0
C280
9A00
1400
ENDCHAR
STARTCHAR nine
ENCODING 57
SWIDTH 462 0
DWIDTH 6 0
BBX 6 12 0 -1
BITMAP
0040
06A0
1C30
2430
3070
30B0
31A0
1A90
01C0
9340
BD00
1000
ENDCHAR
STARTCHAR colon
ENCODING 58
SWIDTH 226 0
DWIDTH 3 0
BBX 3 5 -1 -1
BITMAP
1C
14
00
74
10
ENDCHAR
STARTCHAR semicolon
ENCODING 59
SWIDTH 212 0
DWIDTH 3 0
BBX 3 6 -1 -2
BITMAP
28
14
00
70
30
10
ENDCHAR
STARTCHAR less
ENCODING 60
SWIDTH 271 0
DWIDTH 4 0
BBX 4 7 0 1
BITMAP
01
09
74
D0
A0
34
14
ENDCHAR
STARTCHAR equal
ENCODING 61
SWIDTH 374 0
DWIDTH 5 0
BBX 5 4 0 3
BITMAP
0100
7A80
5540
A540
ENDCHAR
STARTCHAR greater
ENCODING 62
SWIDTH 250 0
DWIDTH 4 0
BBX 5 7 -1 1
BITMAP
0400
0D00
0600
0340
0A00
3400
5000
ENDCHAR
STARTCHAR question
ENCODING 63
SWIDTH 413 0
DWIDTH 6 0
BBX 7 12 0 -1
BITMAP
0140
1EB0
3424
2034
0060
0280
2900
3400
7000
0000
E000
4000
ENDCHAR
STARTCHAR at
ENCODING 64
SWIDTH 648 0
DWIDTH 9 0
BBX 10 9 -1 0
BITMAP
01AA40
060080
186E60
358E20
630920
660860
677490
256640
0A5900
ENDCHAR
STARTCHAR A
ENCODING 65
SWIDTH 552 0
DWIDTH 8 0
BBX 8 14 -1 -3
BITMAP
0004
002B
0093
0186
0346
0709
0A0D
0D5C
6FFE
6818
3428
7028
E028
402C
ENDCHAR
STARTCHAR B
ENCODING 66
SWIDTH 607 0
DWIDTH 9 0
BBX 8 14 0 -3
BITMAP
0150
1B9D
2B07
0A07
0D0A
0C1C
19B4
2BA4
341C
700D
A01C
A038
E5E0
6900
ENDCHAR
STARTCHAR C
ENCODING 67
SWIDTH 548 0
DWIDTH 8 0
BBX 8 14 0 -3
BITMAP
0010
0299
0B0A
1D0A
281D
7408
B000
A000
E000
E000
E010
A020
3A80
0500
ENDCHAR
STARTCHAR D
ENCODING 68
SWIDTH 632 0
DWIDTH 9 0
BBX 9 14 0 -3
BITMAP
014000
1FB800
140E00
0A0700
0D0340
0D0340
1C0740
180700
280A00
340D00
702800
A0A000
E68000
150000
ENDCHAR
STARTCHAR E
ENCODING 69
SWIDTH 523 0
DWIDTH 7 0
BBX 9 14 -1 -3
BITMAP
000400
00A740
034240
0A0340
0E0A00
0A0000
075000
06A000
280000
740000
700500
741800
2EA000
064000
ENDCHAR
STARTCHAR F
ENCODING 70
SWIDTH 585 0
DWIDTH 8 0
BBX 8 14 0 -3
BITMAP
0054
1AAA
7403
7906
140C
0018
1AB9
1460
00D0
01C0
0280
0340
0740
0100
ENDCHAR
STARTCHAR G
ENCODING 71
SWIDTH 612 0
DWIDTH 9 0
BBX 8 14 0 -3
BITMAP
0014
01A9
0746
0E0A
1C1E
3808
7400
B055
B1AD
A01C
A024
6070
35C0
0A00
ENDCHAR
STARTCHAR H
ENCODING 72
SWIDTH 649 0
DWIDTH 9 0
BBX 9 13 0 -3
BITMAP
0701C0
0A0280
090340
0D0700
1C0600
295A00
7BAF40
349C00
707800
603400
A03400
D03000
801000
ENDCHAR
STARTCHAR I
ENCODING 73
SWIDTH 537 0
DWIDTH 8 0
BBX 8 13 -1 -3
BITMAP
002A
00A6
00D6
01CA
01CD
00CD
005C
06BE
7934
E070
E090
7580
1900
ENDCHAR
STARTCHAR J
ENCODING 74
SWIDTH 500 0
DWIDTH 7 0
BBX 10 14 -1 -3
BITMAP
000500
00EFD0
000900
000D00
001C00
002800
002800
183400
387000
A0A000
C0D000
C1C000
D34000
290000
ENDCHAR
STARTCHAR K
ENCODING 75
SWIDTH 497 0
DWIDTH 7 0
BBX 9 15 -1 -4
BITMAP
004000
028340
034340
070700
0A0D00
0D2800
0CA000
1F9000
297400
243400
347000
70A000
B0D000
50A000
002900
ENDCHAR
STARTCHAR L
ENCODING 76
SWIDTH 492 0
DWIDTH 7 0
BBX 10 14 -2 -3
BITMAP
000040
0007D0
000D90
001DC0
002F40
06B900
017400
007000
006000
009000
01C000
2F8000
7AE640
101A00
ENDCHAR
STARTCHAR M
ENCODING 77
SWIDTH 733 0
DWIDTH 10 0
BBX 12 13 -2 -3
BITMAP
001C0B
003C1F
006C2A
00AC7A
00DC99
01DCCC
059D9C
269F18
235E28
630E34
670434
7D0038
140018
ENDCHAR
STARTCHAR N
ENCODING 78
SWIDTH 541 0
DWIDTH 8 0
BBX 10 14 -1 -3
BITMAP
000040
0342E0
074360
0B4750
0E8B80
0D8900
198D00
298C00
259C00
309800
70E400
70F400
B0B000
101000
ENDCHAR
STARTCHAR O
ENCODING 79
SWIDTH 567 0
DWIDTH 8 0
BBX 8 14 0 -3
BITMAP
0050
03E8
0A1C
1C0C
240D
700D
700C
A01C
A018
D024
9070
A0A0
7680
1900
ENDCHAR
STARTCHAR P
ENCODING 80
SWIDTH 552 0
DWIDTH 8 0
BBX 9 14 -1 -3
BITMAP
001400
069B40
0E8280
0241C0
030280
060340
0A0A00
096800
0E9000
1C0000
280000
380000
740000
100000
ENDCHAR
STARTCHAR Q
ENCODING 81
SWIDTH 583 0
DWIDTH 8 0
BBX 8 14 0 -3
BITMAP
0050
02A8
0A09
1C0A
340A
700A
B00D
A00C
602C
3434
04B0
3AD0
7BA0
1419
ENDCHAR
STARTCHAR R
ENCODING 82
SWIDTH 560 0
DWIDTH 8 0
BBX 8 15 0 -4
BITMAP
0050
1B6D
3A07
0907
0C07
0C0D
1828
7EA0
3A80
34C0
70C0
A0D0
D090
40B8
0010
ENDCHAR
STARTCHAR S
ENCODING 83
SWIDTH 474 0
DWIDTH 7 0
BBX 8 14 -1 -3
BITMAP
0014
02DA
0A07
0D06
0D09
0B00
03C0
00E0
0070
0070
7030
B060
7980
1A00
ENDCHAR
STARTCHAR T
ENCODING 84
SWIDTH 423 0
DWIDTH 6 0
BBX 8 13 0 -3
BITMAP
7FFD
5280
0340
0300
0600
0A00
0D00
0C00
1C00
2800
2800
3400
1000
ENDCHAR
STARTCHAR U
ENCODING 85
SWIDTH 574 0
DWIDTH 8 0
BBX 9 13 0 -3
BITMAP
0A0340
0D0700
1C0A00
280D00
341C00
341C00
702800
A03400
A07400
90B000
90F000
B67000
141000
ENDCHAR
STARTCHAR V
ENCODING 86
SWIDTH 503 0
DWIDTH 7 0
BBX 8 13 0 -3
BITMAP
1C0A
280D
341C
3028
7034
6070
60A0
60C0
6180
3240
3300
2D00
0800
ENDCHAR
STARTCHAR W
ENCODING 87
SWIDTH 817 0
DWIDTH 11 0
BBX 12 14 0 -3
BITMAP
000004
0A041D
0D1C1D
182C1C
24281C
303418
703028
607034
A0B030
90F060
91B0D0
633180
792B00
140800
ENDCHAR
STARTCHAR X
ENCODING 88
SWIDTH 579 0
DWIDTH 8 0
BBX 11 14 -1 -3
BITMAP
010000
0A80B4
15C1D0
19C340
0BDA00
00A800
00B400
00A000
01E000
036000
0A3000
1C3400
742980
100500
ENDCHAR
STARTCHAR Y
ENCODING 89
SWIDTH 532 0
DWIDTH 7 0
BBX 8 14 0 -3
BITMAP
0001
0D0A
1C0E
280D
341C
3028
7034
6074
61B0
2E60
0090
51C0
BB40
6400
ENDCHAR
STARTCHAR Z
ENCODING 90
SWIDTH 455 0
DWIDTH 6 0
BBX 8 14 -1 -3
BITMAP
0010
0BFF
0507
000D
0028
0070
01D0
0340
0A00
2800
7000
9140
FFF0
5050
ENDCHAR
STARTCHAR bracketleft
ENCODING 91
SWIDTH 202 0
DWIDTH 3 0
BBX 5 14 -1 -2
BITMAP
0180
0340
0600
0500
0900
0C00
1800
2400
2400
3000
6000
6000
A000
6000
ENDCHAR
STARTCHAR backslash
ENCODING 92
SWIDTH 273 0
DWIDTH 4 0
BBX 3 10 0 0
BITMAP
60
60
30
30
20
24
24
18
1C
0C
ENDCHAR
STARTCHAR bracketright
ENCODING 93
SWIDTH 216 0
DWIDTH 3 0
BBX 6 14 -2 -2
BITMAP
0190
0090
0090
00C0
0080
0180
0240
0300
0200
0600
0900
0C00
2800
6400
ENDCHAR
STARTCHAR asciicircum
ENCODING 94
SWIDTH 287 0
DWIDTH 4 0
BBX 5 5 0 5
BITMAP
0B00
1B00
3300
9240
8240
ENDCHAR
STARTCHAR underscore
ENCODING 95
SWIDTH 439 0
DWIDTH 6 0
BBX 8 1 -2 0
BITMAP
7FFD
ENDCHAR
STARTCHAR grave
ENCODING 96
SWIDTH 567 0
DWIDTH 8 0
BBX 2 2 4 8
BITMAP
40
A0
ENDCHAR
STARTCHAR a
ENCODING 97
SWIDTH 435 0
DWIDTH 6 0
BBX 7 6 0 0
BITMAP
0A00
2740
A240
D308
C720
F690
ENDCHAR
STARTCHAR b
ENCODING 98
SWIDTH 415 0
DWIDTH 6 0
BBX 7 11 0 -1
BITMAP
0900
1D00
2C00
3800
7400
B344
A290
8240
8600
6800
1000
ENDCHAR
STARTCHAR c
ENCODING 99
SWIDTH 363 0
DWIDTH 5 0
BBX 6 7 0 -1
BITMAP
1A00
7700
9500
C020
C080
AA00
1400
ENDCHAR
STARTCHAR d
ENCODING 100
SWIDTH 483 0
DWIDTH 7 0
BBX 8 11 0 -1
BITMAP
0014
0038
0074
00B4
09B0
22D0
91C1
C245
C758
E6A0
0040
ENDCHAR
STARTCHAR e
ENCODING 101
SWIDTH 372 0
DWIDTH 5 0
BBX 6 7 0 -1
BITMAP
0A00
2700
9900
E420
D080
AA00
1400
ENDCHAR
STARTCHAR f
ENCODING 102
SWIDTH 325 0
DWIDTH 5 0
BBX 8 17 -2 -7
BITMAP
0090
00D0
00D0
01C0
0180
0240
03A5
0E00
0E00
0E40
18C0
1890
2490
30C0
7240
7E00
2400
ENDCHAR
STARTCHAR g
ENCODING 103
SWIDTH 459 0
DWIDTH 6 0
BBX 8 13 0 -7
BITMAP
0900
26C0
92C0
C185
C364
BB90
0B00
2A00
9900
C900
8C00
E800
6000
ENDCHAR
STARTCHAR h
ENCODING 104
SWIDTH 465 0
DWIDTH 7 0
BBX 8 11 0 -1
BITMAP
0800
1C00
1800
2800
3540
3AC0
7180
9245
D314
C390
4000
ENDCHAR
STARTCHAR i
ENCODING 105
SWIDTH 274 0
DWIDTH 4 0
BBX 5 9 0 0
BITMAP
0C00
0400
0000
1000
7000
6040
9140
9600
6800
ENDCHAR
STARTCHAR j
ENCODING 106
SWIDTH 267 0
DWIDTH 4 0
BBX 8 15 -3 -6
BITMAP
0034
0010
0000
0040
00D0
01C1
0285
0254
0390
0700
1E00
6900
9C00
D800
A400
ENDCHAR
STARTCHAR k
ENCODING 107
SWIDTH 440 0
DWIDTH 6 0
BBX 8 11 -1 -1
BITMAP
0600
0700
0600
0900
0C50
0AA0
1C90
2782
3089
61E4
0040
ENDCHAR
STARTCHAR l
ENCODING 108
SWIDTH 218 0
DWIDTH 3 0
BBX 3 11 0 -1
BITMAP
08
1C
18
28
34
70
60
90
D0
C0
40
ENDCHAR
STARTCHAR m
ENCODING 109
SWIDTH 717 0
DWIDTH 10 0
BBX 11 7 0 -1
BITMAP
004100
36DF00
74E300
B1C708
928A20
D34B90
400100
ENDCHAR
STARTCHAR n
ENCODING 110
SWIDTH 461 0
DWIDTH 6 0
BBX 8 7 0 -1
BITMAP
1140
3A80
7580
A285
D354
C3A0
0140
ENDCHAR
STARTCHAR o
ENCODING 111
SWIDTH 393 0
DWIDTH 6 0
BBX 7 7 0 -1
BITMAP
1400
7604
A264
EB80
C600
A900
1000
ENDCHAR
STARTCHAR p
ENCODING 112
SWIDTH 451 0
DWIDTH 6 0
BBX 9 12 -2 -6
BITMAP
011400
03AC00
074C00
0A1880
0A7640
0FF900
195000
280000
240000
300000
700000
600000
ENDCHAR
STARTCHAR q
ENCODING 113
SWIDTH 462 0
DWIDTH 6 0
BBX 7 12 0 -6
BITMAP
0540
26D0
A1C0
D180
C248
AB60
1790
0740
0A00
0D00
1D00
0D00
ENDCHAR
STARTCHAR r
ENCODING 114
SWIDTH 406 0
DWIDTH 6 0
BBX 8 8 -1 -1
BITMAP
0500
0E00
0F80
18C0
2185
5318
83A0
0140
ENDCHAR
STARTCHAR s
ENCODING 115
SWIDTH 351 0
DWIDTH 5 0
BBX 4 7 0 -1
BITMAP
1C
28
6C
4A
56
79
14
ENDCHAR
STARTCHAR t
ENCODING 116
SWIDTH 301 0
DWIDTH 4 0
BBX 7 11 -1 -1
BITMAP
0240
0340
ABE4
1B00
0E00
0D00
1804
1420
2490
1A40
0400
ENDCHAR
STARTCHAR u
ENCODING 117
SWIDTH 468 0
DWIDTH 7 0
BBX 8 7 0 -1
BITMAP
1040
71C0
A281
D245
C354
AAA0
1000
ENDCHAR
STARTCHAR v
ENCODING 118
SWIDTH 427 0
DWIDTH 6 0
BBX 7 7 0 -1
BITMAP
1040
A1C0
9284
D290
9900
7400
1000
ENDCHAR
STARTCHAR w
ENCODING 119
SWIDTH 646 0
DWIDTH 9 0
BBX 10 7 0 -1
BITMAP
104100
628A00
A24A10
920E80
C31800
A9A000
100000
ENDCHAR
STARTCHAR x
ENCODING 120
SWIDTH 399 0
DWIDTH 6 0
BBX 7 7 -1 -1
BITMAP
1410
1CE0
0B80
0A00
2B08
62A0
4040
ENDCHAR
STARTCHAR y
ENCODING 121
SWIDTH 406 0
DWIDTH 6 0
BBX 6 12 -1 -6
BITMAP
0410
2870
2460
30D0
72C0
3AC0
0580
0240
0340
0300
0700
0600
ENDCHAR
STARTCHAR z
ENCODING 122
SWIDTH 448 0
DWIDTH 6 0
BBX 8 12 -1 -6
BITMAP
01A0
0674
0060
00C1
02D5
0274
02A0
0990
24C0
6280
6700
7D00
ENDCHAR
STARTCHAR braceleft
ENCODING 123
SWIDTH 243 0
DWIDTH 3 0
BBX 6 14 -1 -2
BITMAP
0050
02D0
0300
0600
0600
0600
1800
1800
0800
1800
3000
7000
3800
1400
ENDCHAR
STARTCHAR bar
ENCODING 124
SWIDTH 253 0
DWIDTH 4 0
BBX 4 11 0 -1
BITMAP
09
0C
18
18
24
30
70
60
90
D0
40
ENDCHAR
STARTCHAR braceright
ENCODING 125
SWIDTH 243 0
DWIDTH 3 0
BBX 6 14 -2 -2
BITMAP
0140
01D0
0090
0090
0180
0240
0240
0280
0600
0500
0500
0900
2C00
6000
ENDCHAR
STARTCHAR asciitilde
ENCODING 126
SWIDTH 329 0
DWIDTH 5 0
BBX 6 2 -1 4
BITMAP
2960
6690
ENDCHAR
STARTCHAR uni00A0
ENCODING 160
SWIDTH 280 0
DWIDTH 4 0
BBX 1 1 0 0
BITMAP
00
ENDCHAR
STARTCHAR exclamdown
ENCODING 161
SWIDTH 249 0
DWIDTH 3 0
BBX 4 11 0 -1
BITMAP
0E
00
0C
18
24
34
70
A0
A0
D0
40
ENDCHAR
STARTCHAR cent
ENCODING 162
SWIDTH 322 0
DWIDTH 5 0
BBX 5 10 0 0
BITMAP
0200
0A40
2580
6340
9100
C000
C000
8500
7400
2000
ENDCHAR
STARTCHAR sterling
ENCODING 163
SWIDTH 318 0
DWIDTH 4 0
BBX 6 9 -1 1
BITMAP
0150
0660
0960
0C40
1800
2E00
2400
2000
AB40
ENDCHAR
STARTCHAR currency
ENCODING 164
SWIDTH 347 0
DWIDTH 5 0
BBX 5 5 0 3
BITMAP
1040
2A80
2200
2600
A600
ENDCHAR
STARTCHAR yen
ENCODING 165
SWIDTH 326 0
DWIDTH 5 0
BBX 6 8 0 1
BITMAP
3090
3180
2600
1D00
2900
6900
7800
3000
ENDCHAR
STARTCHAR brokenbar
ENCODING 166
SWIDTH 253 0
DWIDTH 4 0
BBX 4 11 0 -1
BITMAP
09
0C
18
18
00
10
60
60
90
D0
40
ENDCHAR
STARTCHAR section
ENCODING 167
SWIDTH 297 0
DWIDTH 4 0
BBX 6 12 -1 -1
BITMAP
0040
0620
0C60
0900
0740
2880
3180
1A00
0600
6240
6600
0400
ENDCHAR
STARTCHAR dieresis
ENCODING 168
SWIDTH 567 0
DWIDTH 8 0
BBX 4 1 3 8
BITMAP
99
ENDCHAR
STARTCHAR copyright
ENCODING 169
SWIDTH 456 0
DWIDTH 6 0
BBX 7 7 0 3
BITMAP
0960
2298
5988
8808
9858
6560
1A80
ENDCHAR
STARTCHAR ordfeminine
ENCODING 170
SWIDTH 373 0
DWIDTH 5 0
BBX 7 8 -1 -1
BITMAP
0240
0980
2480
3184
3AA4
1440
6A80
5000
ENDCHAR
STARTCHAR guillemotleft
ENCODING 171
SWIDTH 346 0
DWIDTH 5 0
BBX 6 6 -1 0
BITMAP
0110
0980
2640
6600
3300
1940
ENDCHAR
STARTCHAR logicalnot
ENCODING 172
SWIDTH 512 0
DWIDTH 7 0
BBX 7 4 0 2
BITMAP
6AA4
9558
0018
0010
ENDCHAR
STARTCHAR sfthyphen
ENCODING 173
SWIDTH 353 0
DWIDTH 5 0
BBX 5 2 0 3
BITMAP
BF80
4000
ENDCHAR
STARTCHAR registered
ENCODING 174
SWIDTH 456 0
DWIDTH 6 0
BBX 7 7 0 3
BITMAP
0960
2698
5588
8A48
9958
64A0
1A80
ENDCHAR
STARTCHAR macron
ENCODING 175
SWIDTH 567 0
DWIDTH 8 0
BBX 4 1 3 8
BITMAP
A9
ENDCHAR
STARTCHAR degree
ENCODING 176
SWIDTH 144 0
DWIDTH 2 0
BBX 2 3 1 7
BITMAP
50
A0
40
ENDCHAR
STARTCHAR twosuperior
ENCODING 178
SWIDTH 268 0
DWIDTH 4 0
BBX 5 7 0 4
BITMAP
0500
2640
2300
0600
1800
6000
BD00
ENDCHAR
STARTCHAR threesuperior
ENCODING 179
SWIDTH 262 0
DWIDTH 4 0
BBX 4 7 0 4
BITMAP
05
26
22
09
1A
46
A8
ENDCHAR
STARTCHAR acute
ENCODING 180
SWIDTH 567 0
DWIDTH 8 0
BBX 2 2 4 8
BITMAP
10
A0
ENDCHAR
STARTCHAR mu
ENCODING 181
SWIDTH 453 0
DWIDTH 6 0
BBX 8 8 -2 -3
BITMAP
0924
0C30
1C60
28A2
2E79
3000
6000
5000
ENDCHAR
STARTCHAR paragraph
ENCODING 182
SWIDTH 411 0
DWIDTH 6 0
BBX 7 11 0 0
BITMAP
0040
0AF8
3FB0
7F60
7F60
2E90
0580
0980
0C80
0940
1A00
ENDCHAR
STARTCHAR periodcentered
ENCODING 183
SWIDTH 168 0
DWIDTH 2 0
BBX 2 2 0 4
BITMAP
10
A0
ENDCHAR
STARTCHAR cedilla
ENCODING 184
SWIDTH 567 0
DWIDTH 8 0
BBX 2 4 4 -2
BITMAP
40
C0
70
90
ENDCHAR
STARTCHAR onesuperior
ENCODING 185
SWIDTH 150 0
DWIDTH 2 0
BBX 3 6 0 4
BITMAP
28
24
20
20
60
90
ENDCHAR
STARTCHAR ordmasculine
ENCODING 186
SWIDTH 319 0
DWIDTH 4 0
BBX 6 8 -1 -1
BITMAP
0500
1940
39A0
2780
2600
1800
6A00
5000
ENDCHAR
STARTCHAR guillemotright
ENCODING 187
SWIDTH 346 0
DWIDTH 5 0
BBX 5 6 -1 0
BITMAP
1100
2640
1980
0DC0
2640
9900
ENDCHAR
STARTCHAR onequarter
ENCODING 188
SWIDTH 579 0
DWIDTH 8 0
BBX 8 10 0 0
BITMAP
2809
2424
2060
2080
624D
6629
0C98
24AD
6018
D028
ENDCHAR
STARTCHAR onehalf
ENCODING 189
SWIDTH 603 0
DWIDTH 8 0
BBX 8 11 0 0
BITMAP
0401
2809
1418
2460
2085
2267
6623
0806
2418
6060
D0FD
ENDCHAR
STARTCHAR threequarters
ENCODING 190
SWIDTH 669 0
DWIDTH 9 0
BBX 9 11 0 0
BITMAP
050040
260280
220600
090800
1A2440
466280
A98A40
026A40
062B40
0C0300
240600
ENDCHAR
STARTCHAR questiondown
ENCODING 191
SWIDTH 413 0
DWIDTH 6 0
BBX 7 12 -1 -1
BITMAP
0004
0038
0000
0030
0070
01E0
1D00
3400
6050
A070
76D0
0500
ENDCHAR
STARTCHAR Agrave
ENCODING 192
SWIDTH 552 0
DWIDTH 8 0
BBX 8 17 -1 -3
BITMAP
0004
000A
0000
0004
002B
0093
0186
0346
0709
0A0D
0D5C
6FFE
6818
3428
7028
E028
402C
ENDCHAR
STARTCHAR Aacute
ENCODING 193
SWIDTH 552 0
DWIDTH 8 0
BBX 8 16 -1 -3
BITMAP
0001
000A
0004
002B
0093
0186
0346
0709
0A0D
0D5C
6FFE
6818
3428
7028
E028
402C
ENDCHAR
STARTCHAR Acircumflex
ENCODING 194
SWIDTH 552 0
DWIDTH 8 0
BBX 9 16 -1 -3
BITMAP
000600
001A80
000400
002B00
009300
018600
034600
070900
0A0D00
0D5C00
6FFE00
681800
342800
702800
E02800
402C00
ENDCHAR
STARTCHAR Atilde
ENCODING 195
SWIDTH 552 0
DWIDTH 8 0
BBX 9 16 -1 -3
BITMAP
000400
002A80
000400
002B00
009300
018600
034600
070900
0A0D00
0D5C00
6FFE00
681800
342800
702800
E02800
402C00
ENDCHAR
STARTCHAR Adieresis
ENCODING 196
SWIDTH 552 0
DWIDTH 8 0
BBX 9 15 -1 -3
BITMAP
001980
000400
002B00
009300
018600
034600
070900
0A0D00
0D5C00
6FFE00
681800
342800
702800
E02800
402C00
ENDCHAR
STARTCHAR Aring
ENCODING 197
SWIDTH 552 0
DWIDTH 8 0
BBX 8 15 -1 -3
BITMAP
0006
000A
002B
0093
0186
0346
0709
0A0D
0D5C
6FFE
6818
3428
7028
E028
402C
ENDCHAR
STARTCHAR AE
ENCODING 198
SWIDTH 869 0
DWIDTH 12 0
BBX 14 14 -1 -3
BITMAP
00040500
002B69C0
0093D090
018780C0
03474280
070B8000
0A0ED000
0D5EA800
6FFE0000
681C0000
342C0100
702D0600
E02FA800
402D9000
ENDCHAR
STARTCHAR Ccedilla
ENCODING 199
SWIDTH 548 0
DWIDTH 8 0
BBX 8 17 0 -6
BITMAP
0010
0299
0B0A
1D0A
281D
7408
B000
A000
E000
E000
E010
A020
3A80
0D00
0A00
0600
0400
ENDCHAR
STARTCHAR Egrave
ENCODING 200
SWIDTH 523 0
DWIDTH 7 0
BBX 9 16 -1 -3
BITMAP
001400
001900
000500
00A740
034240
0A0340
0E0A00
0A0000
075000
06A000
280000
740000
700500
741800
2EA000
064000
ENDCHAR
STARTCHAR Eacute
ENCODING 201
SWIDTH 523 0
DWIDTH 7 0
BBX 9 16 -1 -3
BITMAP
000100
000A00
001400
00A740
034240
0A0340
0E0A00
0A0000
075000
06A000
280000
740000
700500
741800
2EA000
064000
ENDCHAR
STARTCHAR Ecircumflex
ENCODING 202
SWIDTH 523 0
DWIDTH 7 0
BBX 9 16 -1 -3
BITMAP
000600
002A40
000400
00A740
034240
0A0340
0E0A00
0A0000
075000
06A000
280000
740000
700500
741800
2EA000
064000
ENDCHAR
STARTCHAR Edieresis
ENCODING 203
SWIDTH 523 0
DWIDTH 7 0
BBX 9 15 -1 -3
BITMAP
002680
000400
00A740
034240
0A0340
0E0A00
0A0000
075000
06A000
280000
740000
700500
741800
2EA000
064000
ENDCHAR
STARTCHAR Igrave
ENCODING 204
SWIDTH 537 0
DWIDTH 8 0
BBX 8 16 -1 -3
BITMAP
0004
000A
0001
002A
00A6
00D6
01CA
01CD
00CD
005C
06BE
7934
E070
E090
7580
1900
ENDCHAR
STARTCHAR Iacute
ENCODING 205
SWIDTH 537 0
DWIDTH 8 0
BBX 9 16 -1 -3
BITMAP
000100
000B40
000400
002A00
00A600
00D600
01CA00
01CD00
00CD00
005C00
06BE00
793400
E07000
E09000
758000
190000
ENDCHAR
STARTCHAR Icircumflex
ENCODING 206
SWIDTH 537 0
DWIDTH 8 0
BBX 9 16 -1 -3
BITMAP
000240
000980
000000
002A00
00A600
00D600
01CA00
01CD00
00CD00
005C00
06BE00
793400
E07000
E09000
758000
190000
ENDCHAR
STARTCHAR Idieresis
ENCODING 207
SWIDTH 537 0
DWIDTH 8 0
BBX 9 15 -1 -3
BITMAP
001980
000000
002A00
00A600
00D600
01CA00
01CD00
00CD00
005C00
06BE00
793400
E07000
E09000
758000
190000
ENDCHAR
STARTCHAR Eth
ENCODING 208
SWIDTH 632 0
DWIDTH 9 0
BBX 10 14 -1 -3
BITMAP
005000
07EE00
050380
0281C0
0340D0
0340D0
1B91D0
6B51C0
0A0280
0D0340
1C0A00
282800
39A000
054000
ENDCHAR
STARTCHAR Ntilde
ENCODING 209
SWIDTH 541 0
DWIDTH 8 0
BBX 10 16 -1 -3
BITMAP
001000
00AA40
000040
0342E0
074360
0B4750
0E8B80
0D8900
198D00
298C00
259C00
309800
70E400
70F400
B0B000
101000
ENDCHAR
STARTCHAR Ograve
ENCODING 210
SWIDTH 567 0
DWIDTH 8 0
BBX 8 16 0 -3
BITMAP
0050
0064
0050
03E8
0A1C
1C0C
240D
700D
700C
A01C
A018
D024
9070
A0A0
7680
1900
ENDCHAR
STARTCHAR Oacute
ENCODING 211
SWIDTH 567 0
DWIDTH 8 0
BBX 8 16 0 -3
BITMAP
0004
0074
0090
03E8
0A1C
1C0C
240D
700D
700C
A01C
A018
D024
9070
A0A0
7680
1900
ENDCHAR
STARTCHAR Ocircumflex
ENCODING 212
SWIDTH 567 0
DWIDTH 8 0
BBX 8 16 0 -3
BITMAP
0024
0098
0050
03E8
0A1C
1C0C
240D
700D
700C
A01C
A018
D024
9070
A0A0
7680
1900
ENDCHAR
STARTCHAR Otilde
ENCODING 213
SWIDTH 567 0
DWIDTH 8 0
BBX 8 16 0 -3
BITMAP
0040
02A9
0050
03E8
0A1C
1C0C
240D
700D
700C
A01C
A018
D024
9070
A0A0
7680
1900
ENDCHAR
STARTCHAR Odieresis
ENCODING 214
SWIDTH 567 0
DWIDTH 8 0
BBX 8 15 0 -3
BITMAP
018D
0050
03E8
0A1C
1C0C
240D
700D
700C
A01C
A018
D024
9070
A0A0
7680
1900
ENDCHAR
STARTCHAR multiply
ENCODING 215
SWIDTH 281 0
DWIDTH 4 0
BBX 5 5 0 2
BITMAP
6340
3900
2400
A800
4800
ENDCHAR
STARTCHAR Oslash
ENCODING 216
SWIDTH 597 0
DWIDTH 8 0
BBX 9 14 -1 -3
BITMAP
001480
00BB80
028740
070B40
0A1F40
0D2740
1C6340
18D340
298700
2B4A00
2E0D00
1D2800
2D6000
768000
ENDCHAR
STARTCHAR Ugrave
ENCODING 217
SWIDTH 574 0
DWIDTH 8 0
BBX 9 16 0 -3
BITMAP
005000
006400
000000
0A0340
0D0700
1C0A00
280D00
341C00
341C00
702800
A03400
A07400
90B000
90F000
B67000
141000
ENDCHAR
STARTCHAR Uacute
ENCODING 218
SWIDTH 574 0
DWIDTH 8 0
BBX 9 16 0 -3
BITMAP
000400
002D00
001000
0A0340
0D0700
1C0A00
280D00
341C00
341C00
702800
A03400
A07400
90B000
90F000
B67000
141000
ENDCHAR
STARTCHAR Ucircumflex
ENCODING 219
SWIDTH 574 0
DWIDTH 8 0
BBX 9 16 0 -3
BITMAP
001800
00A900
000000
0A0340
0D0700
1C0A00
280D00
341C00
341C00
702800
A03400
A07400
90B000
90F000
B67000
141000
ENDCHAR
STARTCHAR Udieresis
ENCODING 220
SWIDTH 574 0
DWIDTH 8 0
BBX 9 15 0 -3
BITMAP
009900
000000
0A0340
0D0700
1C0A00
280D00
341C00
341C00
702800
A03400
A07400
90B000
90F000
B67000
141000
ENDCHAR
STARTCHAR Yacute
ENCODING 221
SWIDTH 532 0
DWIDTH 7 0
BBX 8 16 0 -3
BITMAP
0004
0074
0001
0D0A
1C0E
280D
341C
3028
7034
6074
61B0
2E60
0090
51C0
BB40
6400
ENDCHAR
STARTCHAR Thorn
ENCODING 222
SWIDTH 569 0
DWIDTH 8 0
BBX 9 13 -1 -3
BITMAP
028000
034000
07A900
1E0740
1E0340
0D0340
1C0340
180A00
282800
3A9000
340000
700000
500000
ENDCHAR
STARTCHAR germandbls
ENCODING 223
SWIDTH 495 0
DWIDTH 7 0
BBX 8 16 -2 -7
BITMAP
0079
01C6
028D
0358
0718
060C
1906
1D13
1A7A
2594
30C0
30C0
6180
9700
BD00
6400
ENDCHAR
STARTCHAR agrave
ENCODING 224
SWIDTH 435 0
DWIDTH 6 0
BBX 7 9 0 0
BITMAP
0400
0A00
0000
0A00
2740
A240
D308
C720
F690
ENDCHAR
STARTCHAR aacute
ENCODING 225
SWIDTH 435 0
DWIDTH 6 0
BBX 7 9 0 0
BITMAP
0140
0740
0400
0A00
2740
A240
D308
C720
F690
ENDCHAR
STARTCHAR acircumflex
ENCODING 226
SWIDTH 435 0
DWIDTH 6 0
BBX 7 9 0 0
BITMAP
0200
1980
0000
0A00
2740
A240
D308
C720
F690
ENDCHAR
STARTCHAR atilde
ENCODING 227
SWIDTH 435 0
DWIDTH 6 0
BBX 7 9 0 0
BITMAP
0400
2A90
0000
0A00
2740
A240
D308
C720
F690
ENDCHAR
STARTCHAR adieresis
ENCODING 228
SWIDTH 435 0
DWIDTH 6 0
BBX 7 7 0 0
BITMAP
08D0
0A00
2740
A240
D308
C720
F690
ENDCHAR
STARTCHAR aring
ENCODING 229
SWIDTH 435 0
DWIDTH 6 0
BBX 7 9 0 0
BITMAP
0100
0A00
0100
0A00
2740
A240
D308
C720
F690
ENDCHAR
STARTCHAR ae
ENCODING 230
SWIDTH 594 0
DWIDTH 8 0
BBX 9 7 0 -1
BITMAP
0A2800
279C00
A2A400
D39080
C74240
F6E800
005000
ENDCHAR
STARTCHAR ccedilla
ENCODING 231
SWIDTH 363 0
DWIDTH 5 0
BBX 6 9 0 -3
BITMAP
1A00
7700
9500
C020
C080
AA00
3400
2C00
1800
ENDCHAR
STARTCHAR egrave
ENCODING 232
SWIDTH 372 0
DWIDTH 5 0
BBX 6 10 0 -1
BITMAP
0400
0A00
0000
0A00
2700
9900
E420
D080
AA00
1400
ENDCHAR
STARTCHAR eacute
ENCODING 233
SWIDTH 372 0
DWIDTH 5 0
BBX 6 10 0 -1
BITMAP
0100
0A00
0400
0A00
2700
9900
E420
D080
AA00
1400
ENDCHAR
STARTCHAR ecircumflex
ENCODING 234
SWIDTH 372 0
DWIDTH 5 0
BBX 6 10 0 -1
BITMAP
0600
1A80
0000
0A00
2700
9900
E420
D080
AA00
1400
ENDCHAR
STARTCHAR edieresis
ENCODING 235
SWIDTH 372 0
DWIDTH 5 0
BBX 6 8 0 -1
BITMAP
2980
0A00
2700
9900
E420
D080
AA00
1400
ENDCHAR
STARTCHAR igrave
ENCODING 236
SWIDTH 274 0
DWIDTH 4 0
BBX 5 9 0 0
BITMAP
5000
6400
0000
1000
7000
6040
9140
9600
6800
ENDCHAR
STARTCHAR iacute
ENCODING 237
SWIDTH 274 0
DWIDTH 4 0
BBX 5 9 0 0
BITMAP
0100
0A00
0000
1000
7000
6040
9140
9600
6800
ENDCHAR
STARTCHAR icircumflex
ENCODING 238
SWIDTH 274 0
DWIDTH 4 0
BBX 5 8 0 0
BITMAP
1800
6A00
1000
7000
6040
9140
9600
6800
ENDCHAR
STARTCHAR idieresis
ENCODING 239
SWIDTH 274 0
DWIDTH 4 0
BBX 5 7 0 0
BITMAP
A600
1000
7000
6040
9140
9600
6800
ENDCHAR
STARTCHAR eth
ENCODING 240
SWIDTH 393 0
DWIDTH 6 0
BBX 7 10 0 -1
BITMAP
0200
07A0
1A40
1640
7744
A264
EB80
C600
A900
1000
ENDCHAR
STARTCHAR ntilde
ENCODING 241
SWIDTH 461 0
DWIDTH 6 0
BBX 8 9 0 -1
BITMAP
0400
2A90
1140
3A80
7580
A285
D354
C3A0
0140
ENDCHAR
STARTCHAR ograve
ENCODING 242
SWIDTH 393 0
DWIDTH 6 0
BBX 7 10 0 -1
BITMAP
0400
0A00
0000
1400
7604
A264
EB80
C600
A900
1000
ENDCHAR
STARTCHAR oacute
ENCODING 243
SWIDTH 393 0
DWIDTH 6 0
BBX 7 10 0 -1
BITMAP
0100
0A00
0400
1400
7604
A264
EB80
C600
A900
1000
ENDCHAR
STARTCHAR ocircumflex
ENCODING 244
SWIDTH 393 0
DWIDTH 6 0
BBX 7 9 0 -1
BITMAP
0500
2740
1400
7604
A264
EB80
C600
A900
1000
ENDCHAR
STARTCHAR otilde
ENCODING 245
SWIDTH 393 0
DWIDTH 6 0
BBX 7 8 0 -1
BITMAP
6A80
1400
7604
A264
EB80
C600
A900
1000
ENDCHAR
STARTCHAR odieresis
ENCODING 246
SWIDTH 393 0
DWIDTH 6 0
BBX 7 8 0 -1
BITMAP
2680
1400
7604
A264
EB80
C600
A900
1000
ENDCHAR
STARTCHAR divide
ENCODING 247
SWIDTH 350 0
DWIDTH 5 0
BBX 5 4 0 3
BITMAP
0900
6A40
9540
1800
ENDCHAR
STARTCHAR oslash
ENCODING 248
SWIDTH 406 0
DWIDTH 6 0
BBX 8 7 -1 -1
BITMAP
0660
0D91
2C99
3AE0
31C0
2A40
6400
ENDCHAR
STARTCHAR ugrave
ENCODING 249
SWIDTH 468 0
DWIDTH 7 0
BBX 8 9 0 -1
BITMAP
0400
0A00
1040
71C0
A281
D245
C354
AAA0
1000
ENDCHAR
STARTCHAR uacute
ENCODING 250
SWIDTH 468 0
DWIDTH 7 0
BBX 8 9 0 -1
BITMAP
0040
0740
1440
71C0
A281
D245
C354
AAA0
1000
ENDCHAR
STARTCHAR ucircumflex
ENCODING 251
SWIDTH 468 0
DWIDTH 7 0
BBX 8 9 0 -1
BITMAP
0240
1980
1040
71C0
A281
D245
C354
AAA0
1000
ENDCHAR
STARTCHAR udieresis
ENCODING 252
SWIDTH 468 0
DWIDTH 7 0
BBX 8 8 0 -1
BITMAP
18D0
1040
71C0
A281
D245
C354
AAA0
1000
ENDCHAR
STARTCHAR yacute
ENCODING 253
SWIDTH 406 0
DWIDTH 6 0
BBX 6 15 -1 -6
BITMAP
0010
01A0
0000
0410
2870
2460
30D0
72C0
3AC0
0580
0240
0340
0300
0700
0600
ENDCHAR
STARTCHAR thorn
ENCODING 254
SWIDTH 451 0
DWIDTH 6 0
BBX 9 16 -2 -6
BITMAP
008000
01D000
01C000
028000
025400
03AC00
074C00
0A1880
0A7640
0FF900
195000
280000
240000
300000
700000
600000
ENDCHAR
STARTCHAR ydieresis
ENCODING 255
SWIDTH 406 0
DWIDTH 6 0
BBX 6 13 -1 -6
BITMAP
0A60
0410
2870
2460
30D0
72C0
3AC0
0580
0240
0340
0300
0700
0600
ENDCHAR
STARTCHAR dotlessi
ENCODING 305
SWIDTH 274 0
DWIDTH 4 0
BBX 5 6 0 0
BITMAP
1000
7000
6040
9140
9600
6800
ENDCHAR
STARTCHAR Lslash
ENCODING 321
SWIDTH 492 0
DWIDTH 7 0
BBX 10 14 -2 -3
BITMAP
000040
0007D0
000D90
001DC0
002F40
06B900
017400
007900
03E400
009000
01C000
2F8000
7AE640
101A00
ENDCHAR
STARTCHAR lslash
ENCODING 322
SWIDTH 218 0
DWIDTH 3 0
BBX 5 11 -1 -1
BITMAP
0200
0700
0600
0A00
1F80
AD00
1800
2400
3400
3000
1000
ENDCHAR
STARTCHAR OE
ENCODING 338
SWIDTH 918 0
DWIDTH 13 0
BBX 13 14 0 -3
BITMAP
00500500
03E87680
0A1EC0C0
1C0F41C0
240F0340
700F4000
700E9000
A01EA400
A01D0000
D0280000
90780200
A0BC0900
769EA400
19019000
ENDCHAR
STARTCHAR oe
ENCODING 339
SWIDTH 583 0
DWIDTH 8 0
BBX 9 7 0 -1
BITMAP
182800
769C00
B2A800
EFD080
C74240
AAE900
105000
ENDCHAR
STARTCHAR Scaron
ENCODING 352
SWIDTH 474 0
DWIDTH 7 0
BBX 9 16 -1 -3
BITMAP
001540
001E00
001400
02DA00
0A0700
0D0600
0D0900
0B0000
03C000
00E000
007000
007000
703000
B06000
798000
1A0000
ENDCHAR
STARTCHAR scaron
ENCODING 353
SWIDTH 351 0
DWIDTH 5 0
BBX 5 10 0 -1
BITMAP
1440
0E00
0000
1C00
2800
6C00
4A00
5600
7900
1400
ENDCHAR
STARTCHAR Ydieresis
ENCODING 376
SWIDTH 532 0
DWIDTH 7 0
BBX 8 15 0 -3
BITMAP
018D
0001
0D0A
1C0E
280D
341C
3028
7034
6074
61B0
2E60
0090
51C0
BB40
6400
ENDCHAR
STARTCHAR Zcaron
ENCODING 381
SWIDTH 455 0
DWIDTH 6 0
BBX 8 16 -1 -3
BITMAP
0011
0029
0010
0BFF
0507
000D
0028
0070
01D0
0340
0A00
2800
7000
9140
FFF0
5050
ENDCHAR
STARTCHAR zcaron
ENCODING 382
SWIDTH 349 0
DWIDTH 5 0
BBX 8 15 -2 -6
BITMAP
0144
00E0
0000
0590
0AA0
0090
0181
0799
0564
06D0
18C0
3180
9340
9A00
B800
ENDCHAR
STARTCHAR circumflex
ENCODING 710
SWIDTH 567 0
DWIDTH 8 0
BBX 4 2 3 8
BITMAP
18
69
ENDCHAR
STARTCHAR caron
ENCODING 711
SWIDTH 567 0
DWIDTH 8 0
BBX 4 2 3 8
BITMAP
45
78
ENDCHAR
STARTCHAR breve
ENCODING 728
SWIDTH 567 0
DWIDTH 8 0
BBX 4 3 3 7
BITMAP
41
D9
14
ENDCHAR
STARTCHAR dotaccent
ENCODING 729
SWIDTH 567 0
DWIDTH 8 0
BBX 2 1 4 8
BITMAP
90
ENDCHAR
STARTCHAR ring
ENCODING 730
SWIDTH 567 0
DWIDTH 8 0
BBX 2 3 4 7
BITMAP
50
A0
40
ENDCHAR
STARTCHAR ogonek
ENCODING 731
SWIDTH 567 0
DWIDTH 8 0
BBX 4 3 3 -2
BITMAP
50
D5
64
ENDCHAR
STARTCHAR tilde
ENCODING 732
SWIDTH 567 0
DWIDTH 8 0
BBX 5 1 2 8
BITMAP
6A80
ENDCHAR
STARTCHAR hungarumlaut
ENCODING 733
SWIDTH 567 0
DWIDTH 8 0
BBX 5 3 2 7
BITMAP
0440
6A80
0100
ENDCHAR
STARTCHAR endash
ENCODING 8211
SWIDTH 353 0
DWIDTH 5 0
BBX 5 2 0 3
BITMAP
BF80
4000
ENDCHAR
STARTCHAR emdash
ENCODING 8212
SWIDTH 508 0
DWIDTH 7 0
BBX 7 2 0 3
BITMAP
BFF8
4010
ENDCHAR
STARTCHAR quoteleft
ENCODING 8216
SWIDTH 155 0
DWIDTH 2 0
BBX 3 4 0 6
BITMAP
10
20
74
10
ENDCHAR
STARTCHAR quoteright
ENCODING 8217
SWIDTH 154 0
DWIDTH 2 0
BBX 2 4 1 6
BITMAP
40
D0
90
40
ENDCHAR
STARTCHAR quotesinglbase
ENCODING 8218
SWIDTH 188 0
DWIDTH 3 0
BBX 2 4 -1 -2
BITMAP
10
70
20
40
ENDCHAR
STARTCHAR quotedblleft
ENCODING 8220
SWIDTH 289 0
DWIDTH 4 0
BBX 4 4 0 6
BITMAP
11
22
7B
15
ENDCHAR
STARTCHAR quotedblright
ENCODING 8221
SWIDTH 288 0
DWIDTH 4 0
BBX 4 4 1 6
BITMAP
54
ED
88
44
ENDCHAR
STARTCHAR quotedblbase
ENCODING 8222
SWIDTH 323 0
DWIDTH 5 0
BBX 4 4 -1 -2
BITMAP
11
7B
22
44
ENDCHAR
STARTCHAR bullet
ENCODING 8226
SWIDTH 180 0
DWIDTH 3 0
BBX 2 4 0 2
BITMAP
50
F0
F0
90
ENDCHAR
STARTCHAR ellipsis
ENCODING 8230
SWIDTH 614 0
DWIDTH 9 0
BBX 8 2 -1 -1
BITMAP
75CB
1044
ENDCHAR
STARTCHAR perthousand
ENCODING 8240
SWIDTH 851 0
DWIDTH 12 0
BBX 12 11 0 -1
BITMAP
1A0600
220800
532400
669000
298000
022424
099999
18C689
348988
A0E8E4
400000
ENDCHAR
STARTCHAR guilsinglleft
ENCODING 8249
SWIDTH 202 0
DWIDTH 3 0
BBX 4 6 -1 0
BITMAP
01
08
24
60
30
14
ENDCHAR
STARTCHAR guilsinglright
ENCODING 8250
SWIDTH 202 0
DWIDTH 3 0
BBX 3 6 -1 0
BITMAP
10
24
18
0C
24
90
ENDCHAR
STARTCHAR fraction
ENCODING 8260
SWIDTH 600 0
DWIDTH 8 0
BBX 8 10 0 0
BITMAP
0003
0009
0018
0060
0090
0240
0600
0900
2800
7000
ENDCHAR
STARTCHAR Euro
ENCODING 8364
SWIDTH 334 0
DWIDTH 5 0
BBX 6 8 -1 1
BITMAP
01A0
0610
0C00
3E80
7E40
2400
2440
0A40
ENDCHAR
STARTCHAR minus
ENCODING 8722
SWIDTH 353 0
DWIDTH 5 0
BBX 5 2 0 3
BITMAP
BF80
4000
ENDCHAR
STARTCHAR fi
ENCODING 64257
SWIDTH 549 0
DWIDTH 8 0
BBX 11 17 -2 -7
BITMAP
009000
00D080
00D040
01C000
018100
024700
03AA04
0E0914
0E0C60
0E4A80
18C000
189000
249000
30C000
724000
7E0000
240000
ENDCHAR
STARTCHAR fl
ENCODING 64258
SWIDTH 516 0
DWIDTH 7 0
BBX 10 17 -2 -7
BITMAP
009080
00D0D0
00D1C0
01C280
018240
024340
03AB00
0E0A00
0E0900
0E4C00
18C400
189000
249000
30C000
724000
7E0000
240000
ENDCHAR
STARTCHAR .notdef
ENCODING -1
SWIDTH 280 0
DWIDTH 4 0
BBX 1 1 0 0
BITMAP
00
ENDCHAR
ENDFONT
